<mxfile host="app.diagrams.net" modified="2024-07-02T17:56:07.736Z" agent="Mozilla/5.0 (Windows NT 10.0; Win64; x64) AppleWebKit/537.36 (KHTML, like Gecko) Chrome/126.0.0.0 Safari/537.36" etag="bIT52nvD72lSkAUaxpyo" version="24.6.4" type="device">
  <diagram name="Page-1" id="ysjr2zSEf_ofs1l2SVtd">
    <mxGraphModel dx="1167" dy="619" grid="1" gridSize="10" guides="1" tooltips="1" connect="1" arrows="1" fold="1" page="1" pageScale="1" pageWidth="850" pageHeight="1100" math="0" shadow="0">
      <root>
        <mxCell id="0" />
        <mxCell id="1" parent="0" />
        <mxCell id="NzMTnD82kYPW4gIFOgjF-1" value="" style="rounded=0;whiteSpace=wrap;html=1;strokeColor=#F7F7F7;" vertex="1" parent="1">
          <mxGeometry x="40" y="20" width="780" height="650" as="geometry" />
        </mxCell>
        <mxCell id="NzMTnD82kYPW4gIFOgjF-3" value="" style="swimlane;whiteSpace=wrap;html=1;startSize=30;" vertex="1" parent="1">
          <mxGeometry x="60" y="30" width="740" height="620" as="geometry" />
        </mxCell>
        <mxCell id="NzMTnD82kYPW4gIFOgjF-5" value="&lt;font size=&quot;1&quot; style=&quot;&quot;&gt;&lt;b style=&quot;font-size: 16px;&quot;&gt;Hostel Administrator&lt;/b&gt;&lt;/font&gt;" style="text;html=1;align=center;verticalAlign=middle;whiteSpace=wrap;rounded=0;" vertex="1" parent="NzMTnD82kYPW4gIFOgjF-3">
          <mxGeometry x="69" width="178" height="30" as="geometry" />
        </mxCell>
        <mxCell id="NzMTnD82kYPW4gIFOgjF-6" value="&lt;font size=&quot;1&quot; style=&quot;&quot;&gt;&lt;b style=&quot;font-size: 16px;&quot;&gt;Hostel Managment Software&lt;/b&gt;&lt;/font&gt;" style="text;html=1;align=center;verticalAlign=middle;whiteSpace=wrap;rounded=0;" vertex="1" parent="NzMTnD82kYPW4gIFOgjF-3">
          <mxGeometry x="432" width="228" height="30" as="geometry" />
        </mxCell>
        <mxCell id="NzMTnD82kYPW4gIFOgjF-26" value="" style="endArrow=classic;html=1;rounded=0;entryX=0.859;entryY=0.145;entryDx=0;entryDy=0;entryPerimeter=0;" edge="1" parent="NzMTnD82kYPW4gIFOgjF-3">
          <mxGeometry width="50" height="50" relative="1" as="geometry">
            <mxPoint x="649" y="128" as="sourcePoint" />
            <mxPoint x="688.1500000000001" y="127.5" as="targetPoint" />
          </mxGeometry>
        </mxCell>
        <mxCell id="NzMTnD82kYPW4gIFOgjF-27" value="" style="ellipse;html=1;shape=endState;fillColor=#000000;strokeColor=#0F0000;" vertex="1" parent="NzMTnD82kYPW4gIFOgjF-3">
          <mxGeometry x="689" y="112" width="30" height="30" as="geometry" />
        </mxCell>
        <mxCell id="NzMTnD82kYPW4gIFOgjF-59" value="&lt;span style=&quot;font-size: 14px;&quot;&gt;&lt;b&gt;Manage Payment&lt;/b&gt;&lt;/span&gt;&lt;div&gt;&lt;span style=&quot;font-size: 14px;&quot;&gt;&lt;b&gt;&amp;nbsp;Details&lt;/b&gt;&lt;/span&gt;&lt;/div&gt;" style="rounded=1;whiteSpace=wrap;html=1;arcSize=40;" vertex="1" parent="NzMTnD82kYPW4gIFOgjF-3">
          <mxGeometry x="593" y="476" width="140" height="40" as="geometry" />
        </mxCell>
        <mxCell id="NzMTnD82kYPW4gIFOgjF-60" value="" style="endArrow=classic;html=1;rounded=0;" edge="1" parent="NzMTnD82kYPW4gIFOgjF-3">
          <mxGeometry width="50" height="50" relative="1" as="geometry">
            <mxPoint x="380" y="456" as="sourcePoint" />
            <mxPoint x="380" y="476" as="targetPoint" />
          </mxGeometry>
        </mxCell>
        <mxCell id="NzMTnD82kYPW4gIFOgjF-4" value="" style="endArrow=none;html=1;rounded=0;" edge="1" parent="1">
          <mxGeometry width="50" height="50" relative="1" as="geometry">
            <mxPoint x="357" y="650" as="sourcePoint" />
            <mxPoint x="354" y="30" as="targetPoint" />
          </mxGeometry>
        </mxCell>
        <mxCell id="NzMTnD82kYPW4gIFOgjF-7" value="" style="ellipse;html=1;fillColor=#030303;" vertex="1" parent="1">
          <mxGeometry x="70" y="70" width="30" height="30" as="geometry" />
        </mxCell>
        <mxCell id="NzMTnD82kYPW4gIFOgjF-8" value="" style="endArrow=open;html=1;rounded=0;align=center;verticalAlign=top;endFill=0;labelBackgroundColor=none;endSize=6;entryX=0.2;entryY=0.077;entryDx=0;entryDy=0;entryPerimeter=0;" edge="1" parent="1">
          <mxGeometry relative="1" as="geometry">
            <mxPoint x="142" y="84.70000000000005" as="targetPoint" />
            <mxPoint x="72" y="85" as="sourcePoint" />
          </mxGeometry>
        </mxCell>
        <mxCell id="NzMTnD82kYPW4gIFOgjF-9" value="&lt;font style=&quot;font-size: 14px;&quot;&gt;&lt;b&gt;Validate Administrator&lt;/b&gt;&lt;/font&gt;" style="rounded=1;whiteSpace=wrap;html=1;arcSize=40;" vertex="1" parent="1">
          <mxGeometry x="143" y="70" width="170" height="30" as="geometry" />
        </mxCell>
        <mxCell id="NzMTnD82kYPW4gIFOgjF-19" value="" style="rhombus;whiteSpace=wrap;html=1;" vertex="1" parent="1">
          <mxGeometry x="370" y="137" width="80" height="40" as="geometry" />
        </mxCell>
        <mxCell id="NzMTnD82kYPW4gIFOgjF-23" value="" style="endArrow=classic;html=1;rounded=0;entryX=0.5;entryY=0;entryDx=0;entryDy=0;" edge="1" parent="1" target="NzMTnD82kYPW4gIFOgjF-19">
          <mxGeometry width="50" height="50" relative="1" as="geometry">
            <mxPoint x="228" y="101" as="sourcePoint" />
            <mxPoint x="358.4000000000001" y="141.4000000000001" as="targetPoint" />
            <Array as="points">
              <mxPoint x="228" y="120" />
              <mxPoint x="410" y="121" />
            </Array>
          </mxGeometry>
        </mxCell>
        <mxCell id="NzMTnD82kYPW4gIFOgjF-24" value="" style="endArrow=classic;html=1;rounded=0;exitX=1;exitY=0.5;exitDx=0;exitDy=0;entryX=0;entryY=0.5;entryDx=0;entryDy=0;" edge="1" parent="1" source="NzMTnD82kYPW4gIFOgjF-19" target="NzMTnD82kYPW4gIFOgjF-25">
          <mxGeometry width="50" height="50" relative="1" as="geometry">
            <mxPoint x="380" y="350" as="sourcePoint" />
            <mxPoint x="430" y="300" as="targetPoint" />
          </mxGeometry>
        </mxCell>
        <mxCell id="NzMTnD82kYPW4gIFOgjF-25" value="&lt;span style=&quot;font-size: 14px;&quot;&gt;&lt;b&gt;Alert &quot;Not a valid administrator&quot;&lt;/b&gt;&lt;/span&gt;" style="rounded=1;whiteSpace=wrap;html=1;arcSize=40;" vertex="1" parent="1">
          <mxGeometry x="571" y="138" width="138" height="40" as="geometry" />
        </mxCell>
        <mxCell id="NzMTnD82kYPW4gIFOgjF-29" value="&lt;font style=&quot;font-size: 13px;&quot;&gt;&lt;b&gt;[unauthorized]&lt;/b&gt;&lt;/font&gt;" style="text;html=1;align=center;verticalAlign=middle;whiteSpace=wrap;rounded=0;" vertex="1" parent="1">
          <mxGeometry x="459" y="137" width="90" height="20" as="geometry" />
        </mxCell>
        <mxCell id="NzMTnD82kYPW4gIFOgjF-30" value="&lt;span style=&quot;font-size: 14px;&quot;&gt;&lt;b&gt;Check Request&lt;/b&gt;&lt;/span&gt;" style="rounded=1;whiteSpace=wrap;html=1;arcSize=40;" vertex="1" parent="1">
          <mxGeometry x="161" y="202" width="127" height="30" as="geometry" />
        </mxCell>
        <mxCell id="NzMTnD82kYPW4gIFOgjF-31" value="" style="endArrow=classic;html=1;rounded=0;entryX=0.5;entryY=0;entryDx=0;entryDy=0;exitX=0.5;exitY=1;exitDx=0;exitDy=0;" edge="1" parent="1" source="NzMTnD82kYPW4gIFOgjF-19" target="NzMTnD82kYPW4gIFOgjF-30">
          <mxGeometry width="50" height="50" relative="1" as="geometry">
            <mxPoint x="360" y="330" as="sourcePoint" />
            <mxPoint x="410" y="280" as="targetPoint" />
            <Array as="points">
              <mxPoint x="410" y="190" />
              <mxPoint x="225" y="190" />
            </Array>
          </mxGeometry>
        </mxCell>
        <mxCell id="NzMTnD82kYPW4gIFOgjF-32" value="&lt;font style=&quot;font-size: 13px;&quot;&gt;&lt;b&gt;[authorized]&lt;/b&gt;&lt;/font&gt;" style="text;html=1;align=center;verticalAlign=middle;whiteSpace=wrap;rounded=0;" vertex="1" parent="1">
          <mxGeometry x="250" y="169" width="90" height="20" as="geometry" />
        </mxCell>
        <mxCell id="NzMTnD82kYPW4gIFOgjF-33" value="" style="rhombus;whiteSpace=wrap;html=1;" vertex="1" parent="1">
          <mxGeometry x="371" y="251" width="80" height="40" as="geometry" />
        </mxCell>
        <mxCell id="NzMTnD82kYPW4gIFOgjF-35" value="" style="endArrow=classic;html=1;rounded=0;exitX=0.5;exitY=1;exitDx=0;exitDy=0;entryX=0.5;entryY=0;entryDx=0;entryDy=0;" edge="1" parent="1">
          <mxGeometry width="50" height="50" relative="1" as="geometry">
            <mxPoint x="224.5" y="232" as="sourcePoint" />
            <mxPoint x="411" y="251" as="targetPoint" />
            <Array as="points">
              <mxPoint x="225" y="240" />
              <mxPoint x="410" y="240" />
            </Array>
          </mxGeometry>
        </mxCell>
        <mxCell id="NzMTnD82kYPW4gIFOgjF-37" value="" style="endArrow=classic;html=1;rounded=0;exitX=1;exitY=0.5;exitDx=0;exitDy=0;entryX=0;entryY=0.5;entryDx=0;entryDy=0;" edge="1" parent="1">
          <mxGeometry width="50" height="50" relative="1" as="geometry">
            <mxPoint x="449" y="271" as="sourcePoint" />
            <mxPoint x="568" y="272" as="targetPoint" />
          </mxGeometry>
        </mxCell>
        <mxCell id="NzMTnD82kYPW4gIFOgjF-38" value="&lt;font style=&quot;font-size: 13px;&quot;&gt;&lt;b&gt;[not any request]&lt;/b&gt;&lt;/font&gt;" style="text;html=1;align=center;verticalAlign=middle;whiteSpace=wrap;rounded=0;" vertex="1" parent="1">
          <mxGeometry x="447" y="251" width="114" height="20" as="geometry" />
        </mxCell>
        <mxCell id="NzMTnD82kYPW4gIFOgjF-39" value="&lt;span style=&quot;font-size: 14px;&quot;&gt;&lt;b&gt;Alert &quot;Does&#39;t have any request&quot;&lt;/b&gt;&lt;/span&gt;" style="rounded=1;whiteSpace=wrap;html=1;arcSize=40;" vertex="1" parent="1">
          <mxGeometry x="569" y="252" width="138" height="40" as="geometry" />
        </mxCell>
        <mxCell id="NzMTnD82kYPW4gIFOgjF-40" value="" style="endArrow=classic;html=1;rounded=0;entryX=0.859;entryY=0.145;entryDx=0;entryDy=0;entryPerimeter=0;" edge="1" parent="1">
          <mxGeometry width="50" height="50" relative="1" as="geometry">
            <mxPoint x="708" y="271" as="sourcePoint" />
            <mxPoint x="747.1500000000001" y="270.5" as="targetPoint" />
          </mxGeometry>
        </mxCell>
        <mxCell id="NzMTnD82kYPW4gIFOgjF-41" value="" style="ellipse;html=1;shape=endState;fillColor=#000000;strokeColor=#0F0000;" vertex="1" parent="1">
          <mxGeometry x="748" y="255" width="30" height="30" as="geometry" />
        </mxCell>
        <mxCell id="NzMTnD82kYPW4gIFOgjF-42" value="" style="endArrow=classic;html=1;rounded=0;entryX=0.5;entryY=0;entryDx=0;entryDy=0;exitX=0.5;exitY=1;exitDx=0;exitDy=0;" edge="1" parent="1">
          <mxGeometry width="50" height="50" relative="1" as="geometry">
            <mxPoint x="411" y="292" as="sourcePoint" />
            <mxPoint x="226" y="317" as="targetPoint" />
            <Array as="points">
              <mxPoint x="411" y="305" />
              <mxPoint x="226" y="305" />
            </Array>
          </mxGeometry>
        </mxCell>
        <mxCell id="NzMTnD82kYPW4gIFOgjF-43" value="&lt;span style=&quot;font-size: 14px;&quot;&gt;&lt;b&gt;Check Available Rooms&lt;/b&gt;&lt;/span&gt;" style="rounded=1;whiteSpace=wrap;html=1;arcSize=40;" vertex="1" parent="1">
          <mxGeometry x="143" y="317" width="169" height="30" as="geometry" />
        </mxCell>
        <mxCell id="NzMTnD82kYPW4gIFOgjF-44" value="&lt;font style=&quot;font-size: 13px;&quot;&gt;&lt;b&gt;[request]&lt;/b&gt;&lt;/font&gt;" style="text;html=1;align=center;verticalAlign=middle;whiteSpace=wrap;rounded=0;" vertex="1" parent="1">
          <mxGeometry x="256" y="284" width="79" height="20" as="geometry" />
        </mxCell>
        <mxCell id="NzMTnD82kYPW4gIFOgjF-45" value="" style="endArrow=classic;html=1;rounded=0;exitX=0.5;exitY=1;exitDx=0;exitDy=0;entryX=0.5;entryY=0;entryDx=0;entryDy=0;" edge="1" parent="1">
          <mxGeometry width="50" height="50" relative="1" as="geometry">
            <mxPoint x="224.5" y="348" as="sourcePoint" />
            <mxPoint x="411" y="367" as="targetPoint" />
            <Array as="points">
              <mxPoint x="225" y="356" />
              <mxPoint x="410" y="356" />
            </Array>
          </mxGeometry>
        </mxCell>
        <mxCell id="NzMTnD82kYPW4gIFOgjF-46" value="" style="rhombus;whiteSpace=wrap;html=1;" vertex="1" parent="1">
          <mxGeometry x="371" y="367" width="80" height="40" as="geometry" />
        </mxCell>
        <mxCell id="NzMTnD82kYPW4gIFOgjF-47" value="" style="endArrow=classic;html=1;rounded=0;exitX=1;exitY=0.5;exitDx=0;exitDy=0;entryX=0;entryY=0.5;entryDx=0;entryDy=0;" edge="1" parent="1">
          <mxGeometry width="50" height="50" relative="1" as="geometry">
            <mxPoint x="450" y="387" as="sourcePoint" />
            <mxPoint x="571" y="388" as="targetPoint" />
          </mxGeometry>
        </mxCell>
        <mxCell id="NzMTnD82kYPW4gIFOgjF-48" value="&lt;span style=&quot;font-size: 13px;&quot;&gt;&lt;b&gt;[not available]&lt;/b&gt;&lt;/span&gt;" style="text;html=1;align=center;verticalAlign=middle;whiteSpace=wrap;rounded=0;" vertex="1" parent="1">
          <mxGeometry x="455" y="366" width="103" height="20" as="geometry" />
        </mxCell>
        <mxCell id="NzMTnD82kYPW4gIFOgjF-49" value="&lt;span style=&quot;font-size: 14px;&quot;&gt;&lt;b&gt;Alert &quot;Request Denied.&quot;&lt;/b&gt;&lt;/span&gt;" style="rounded=1;whiteSpace=wrap;html=1;arcSize=40;" vertex="1" parent="1">
          <mxGeometry x="572" y="369" width="128" height="40" as="geometry" />
        </mxCell>
        <mxCell id="NzMTnD82kYPW4gIFOgjF-50" value="" style="endArrow=classic;html=1;rounded=0;entryX=0.859;entryY=0.145;entryDx=0;entryDy=0;entryPerimeter=0;" edge="1" parent="1">
          <mxGeometry width="50" height="50" relative="1" as="geometry">
            <mxPoint x="701" y="387" as="sourcePoint" />
            <mxPoint x="740.1500000000001" y="386.5" as="targetPoint" />
          </mxGeometry>
        </mxCell>
        <mxCell id="NzMTnD82kYPW4gIFOgjF-51" value="" style="ellipse;html=1;shape=endState;fillColor=#000000;strokeColor=#0F0000;" vertex="1" parent="1">
          <mxGeometry x="741" y="371" width="30" height="30" as="geometry" />
        </mxCell>
        <mxCell id="NzMTnD82kYPW4gIFOgjF-52" value="" style="endArrow=classic;html=1;rounded=0;entryX=0.5;entryY=0;entryDx=0;entryDy=0;exitX=0.5;exitY=1;exitDx=0;exitDy=0;" edge="1" parent="1">
          <mxGeometry width="50" height="50" relative="1" as="geometry">
            <mxPoint x="411" y="407" as="sourcePoint" />
            <mxPoint x="226" y="432" as="targetPoint" />
            <Array as="points">
              <mxPoint x="411" y="420" />
              <mxPoint x="226" y="420" />
            </Array>
          </mxGeometry>
        </mxCell>
        <mxCell id="NzMTnD82kYPW4gIFOgjF-53" value="&lt;span style=&quot;font-size: 14px;&quot;&gt;&lt;b&gt;Register Member&lt;/b&gt;&lt;/span&gt;" style="rounded=1;whiteSpace=wrap;html=1;arcSize=40;" vertex="1" parent="1">
          <mxGeometry x="153" y="433" width="147" height="30" as="geometry" />
        </mxCell>
        <mxCell id="NzMTnD82kYPW4gIFOgjF-54" value="&lt;span style=&quot;font-size: 13px;&quot;&gt;&lt;b&gt;[available]&lt;/b&gt;&lt;/span&gt;" style="text;html=1;align=center;verticalAlign=middle;whiteSpace=wrap;rounded=0;" vertex="1" parent="1">
          <mxGeometry x="249" y="399" width="103" height="20" as="geometry" />
        </mxCell>
        <mxCell id="NzMTnD82kYPW4gIFOgjF-55" value="" style="endArrow=classic;html=1;rounded=0;exitX=0.5;exitY=1;exitDx=0;exitDy=0;entryX=0.5;entryY=0;entryDx=0;entryDy=0;" edge="1" parent="1">
          <mxGeometry width="50" height="50" relative="1" as="geometry">
            <mxPoint x="224.5" y="463" as="sourcePoint" />
            <mxPoint x="411" y="482" as="targetPoint" />
            <Array as="points">
              <mxPoint x="225" y="471" />
              <mxPoint x="410" y="471" />
            </Array>
          </mxGeometry>
        </mxCell>
        <mxCell id="NzMTnD82kYPW4gIFOgjF-56" value="" style="endArrow=none;html=1;rounded=0;exitX=0.447;exitY=0.491;exitDx=0;exitDy=0;exitPerimeter=0;strokeWidth=3;" edge="1" parent="1">
          <mxGeometry width="50" height="50" relative="1" as="geometry">
            <mxPoint x="382.9499999999998" y="485.10000000000014" as="sourcePoint" />
            <mxPoint x="763" y="485" as="targetPoint" />
          </mxGeometry>
        </mxCell>
        <mxCell id="NzMTnD82kYPW4gIFOgjF-57" value="&lt;span style=&quot;font-size: 14px;&quot;&gt;&lt;b&gt;Generate Barcode&lt;/b&gt;&lt;/span&gt;" style="rounded=1;whiteSpace=wrap;html=1;arcSize=40;" vertex="1" parent="1">
          <mxGeometry x="363" y="507" width="143" height="30" as="geometry" />
        </mxCell>
        <mxCell id="NzMTnD82kYPW4gIFOgjF-58" value="&lt;span style=&quot;font-size: 14px;&quot;&gt;&lt;b&gt;Allocate Room&lt;/b&gt;&lt;/span&gt;" style="rounded=1;whiteSpace=wrap;html=1;arcSize=40;" vertex="1" parent="1">
          <mxGeometry x="515" y="507" width="129" height="30" as="geometry" />
        </mxCell>
        <mxCell id="NzMTnD82kYPW4gIFOgjF-62" value="" style="endArrow=classic;html=1;rounded=0;" edge="1" parent="1">
          <mxGeometry width="50" height="50" relative="1" as="geometry">
            <mxPoint x="577" y="486" as="sourcePoint" />
            <mxPoint x="577" y="506" as="targetPoint" />
          </mxGeometry>
        </mxCell>
        <mxCell id="NzMTnD82kYPW4gIFOgjF-63" value="" style="endArrow=classic;html=1;rounded=0;" edge="1" parent="1">
          <mxGeometry width="50" height="50" relative="1" as="geometry">
            <mxPoint x="724" y="486" as="sourcePoint" />
            <mxPoint x="724" y="506" as="targetPoint" />
          </mxGeometry>
        </mxCell>
        <mxCell id="NzMTnD82kYPW4gIFOgjF-65" value="" style="endArrow=classic;html=1;rounded=0;" edge="1" parent="1">
          <mxGeometry width="50" height="50" relative="1" as="geometry">
            <mxPoint x="576" y="538" as="sourcePoint" />
            <mxPoint x="576" y="565" as="targetPoint" />
          </mxGeometry>
        </mxCell>
        <mxCell id="NzMTnD82kYPW4gIFOgjF-66" value="" style="endArrow=classic;html=1;rounded=0;" edge="1" parent="1">
          <mxGeometry width="50" height="50" relative="1" as="geometry">
            <mxPoint x="724" y="546" as="sourcePoint" />
            <mxPoint x="724" y="566" as="targetPoint" />
          </mxGeometry>
        </mxCell>
        <mxCell id="NzMTnD82kYPW4gIFOgjF-67" value="" style="endArrow=none;html=1;rounded=0;exitX=0.447;exitY=0.491;exitDx=0;exitDy=0;exitPerimeter=0;strokeWidth=3;" edge="1" parent="1">
          <mxGeometry width="50" height="50" relative="1" as="geometry">
            <mxPoint x="382.9499999999998" y="568.1000000000001" as="sourcePoint" />
            <mxPoint x="763" y="568" as="targetPoint" />
          </mxGeometry>
        </mxCell>
        <mxCell id="NzMTnD82kYPW4gIFOgjF-68" value="" style="endArrow=classic;html=1;rounded=0;" edge="1" parent="1">
          <mxGeometry width="50" height="50" relative="1" as="geometry">
            <mxPoint x="442" y="538" as="sourcePoint" />
            <mxPoint x="442" y="565" as="targetPoint" />
          </mxGeometry>
        </mxCell>
        <mxCell id="NzMTnD82kYPW4gIFOgjF-69" value="" style="endArrow=classic;html=1;rounded=0;" edge="1" parent="1">
          <mxGeometry width="50" height="50" relative="1" as="geometry">
            <mxPoint x="576" y="569" as="sourcePoint" />
            <mxPoint x="576" y="596" as="targetPoint" />
          </mxGeometry>
        </mxCell>
        <mxCell id="NzMTnD82kYPW4gIFOgjF-70" value="" style="ellipse;html=1;shape=endState;fillColor=#000000;strokeColor=#0F0000;" vertex="1" parent="1">
          <mxGeometry x="561.5" y="597" width="30" height="30" as="geometry" />
        </mxCell>
      </root>
    </mxGraphModel>
  </diagram>
</mxfile>
